<svg xmlns="http://www.w3.org/2000/svg" shape-rendering="geometricPrecision" text-rendering="geometricPrecision" image-rendering="optimizeQuality" fill-rule="evenodd" clip-rule="evenodd" viewBox="0 0 512 512.004"><path d="M392.51 511.69c-62.032 5.67-113.901-67.019-153.657-103.887C218.749 552.665-.15 538.933 0 391.985c.072-61.724 0-212.549 0-272.331C0 98.16 5.899 76.515 16.965 58.16c21-35.599 61.58-58.584 102.906-58.14 62.254.079 212.177-.071 272.639 0 147.084 0 161.053 218.821 15.696 238.523l68.977 68.884c75.785 71.27 18.906 207.396-84.673 204.263zm-33.407-86.199c42.745 44.035 110.984-24.182 66.963-66.869L306.489 239.217h-66.891v66.862l103.365 103.222 16.14 16.19zM72.417 392.056c-.974 61.201 95.66 61.423 94.693 0V119.654c.817-30.525-31.464-54.778-60.613-45.375-1.268.373-2.465.746-3.59 1.197-18.306 6.787-31.013 25.522-30.49 45.074v271.506zM392.51 166.893c61.429.975 61.358-95.524 0-94.556H230.109c12.335 25.974 9.196 66.425 9.418 94.556H392.51z"/></svg>